<mxfile host="app.diagrams.net" modified="2024-02-23T14:55:57.490Z" agent="Mozilla/5.0 (Windows NT 10.0; Win64; x64) AppleWebKit/537.36 (KHTML, like Gecko) Chrome/121.0.0.0 Safari/537.36 OPR/107.0.0.0" version="23.1.5" etag="hUE8zh1--8Uww87S8lJ3" type="github">
  <diagram name="Page-1" id="0fapPCXpNZhOwsV5zokc">
    <mxGraphModel>
      <root>
        <mxCell id="0" />
        <mxCell id="1" parent="0" />
      </root>
    </mxGraphModel>
  </diagram>
</mxfile>
